<svg width="1000" height="1000" viewBox="0 0 1000 1000" xmlns="http://www.w3.org/2000/svg">
  <defs>
    <radialGradient id="bg" cx="50%" cy="36%" r="78%"><stop offset="0%" stop-color="#9b6bff" stop-opacity="0.20"/><stop offset="52%" stop-color="#0c0718"/><stop offset="100%" stop-color="#040308"/></radialGradient>
    <filter id="glow" x="-60%" y="-60%" width="220%" height="220%"><feGaussianBlur stdDeviation="9" result="b"/><feMerge><feMergeNode in="b"/><feMergeNode in="SourceGraphic"/></feMerge></filter>
    <pattern id="scan" width="6" height="6" patternUnits="userSpaceOnUse"><rect width="6" height="3" fill="#000000" fill-opacity="0.16"/></pattern>
  </defs>
  <rect width="1000" height="1000" fill="url(#bg)"/>
  <g stroke="#9b6bff" stroke-opacity="0.2" stroke-width="1.5"><line x1="304" y1="668" x2="-655" y2="968"/><line x1="332" y1="668" x2="-490" y2="968"/><line x1="360" y1="668" x2="-325" y2="968"/><line x1="388" y1="668" x2="-160" y2="968"/><line x1="416" y1="668" x2="5" y2="968"/><line x1="444" y1="668" x2="170" y2="968"/><line x1="472" y1="668" x2="335" y2="968"/><line x1="500" y1="668" x2="500" y2="968"/><line x1="528" y1="668" x2="665" y2="968"/><line x1="556" y1="668" x2="830" y2="968"/><line x1="584" y1="668" x2="995" y2="968"/><line x1="612" y1="668" x2="1160" y2="968"/><line x1="640" y1="668" x2="1325" y2="968"/><line x1="668" y1="668" x2="1490" y2="968"/><line x1="696" y1="668" x2="1655" y2="968"/><line x1="0" y1="668.0" x2="1000" y2="668.0"/><line x1="0" y1="681.0" x2="1000" y2="681.0"/><line x1="0" y1="698.4" x2="1000" y2="698.4"/><line x1="0" y1="721.8" x2="1000" y2="721.8"/><line x1="0" y1="753.0" x2="1000" y2="753.0"/><line x1="0" y1="795.0" x2="1000" y2="795.0"/><line x1="0" y1="851.1" x2="1000" y2="851.1"/><line x1="0" y1="926.4" x2="1000" y2="926.4"/></g>
  <rect x="44" y="44" width="912" height="912" rx="30" fill="none" stroke="#9b6bff" stroke-opacity="0.5" stroke-width="2"/>
  <text x="500" y="158" font-family="Menlo, Monaco, monospace" font-size="40" letter-spacing="20" fill="#ffffff" fill-opacity="0.82" text-anchor="middle">GRINDIE</text>
  <text x="500" y="196" font-family="Menlo, Monaco, monospace" font-size="20" letter-spacing="10" fill="#9b6bff" fill-opacity="0.7" text-anchor="middle">ACHIEVEMENT</text>
  <g filter="url(#glow)" fill="none" stroke="#9b6bff" stroke-linejoin="round"><path d="M410 660 V500 a90 90 0 0 1 180 0 V660 l-30 -28 -30 28 -30 -28 -30 28 -30 -28 Z" fill="none" stroke-width="14" stroke-linejoin="round"/><circle cx="468" cy="498" r="12"/><circle cx="532" cy="498" r="12"/></g>
  <text x="500" y="790" font-family="Menlo, Monaco, monospace" font-weight="bold" font-size="52" letter-spacing="2" fill="#9b6bff" filter="url(#glow)" text-anchor="middle">GHOST PROTOCOL</text>
  <text x="500" y="884" font-family="Menlo, Monaco, monospace" font-size="22" letter-spacing="9" fill="#9b6bff" fill-opacity="0.85" text-anchor="middle">◆ TRADEABLE ◆</text>
  <rect width="1000" height="1000" fill="url(#scan)"/>
</svg>